<?xml version="1.0" standalone="no"?>
<!DOCTYPE svg PUBLIC "-//W3C//DTD SVG 20010904//EN"
 "http://www.w3.org/TR/2001/REC-SVG-20010904/DTD/svg10.dtd">
<svg version="1.0" xmlns="http://www.w3.org/2000/svg"
 width="111.000000pt" height="48.000000pt" viewBox="0 0 111.000000 48.000000"
 preserveAspectRatio="xMidYMid meet">

<g transform="translate(0.000000,48.000000) scale(0.100000,-0.100000)"
fill="#000000" stroke="none">
<path d="M10 255 c0 -37 4 -65 10 -65 6 0 10 28 10 65 0 37 -4 65 -10 65 -6 0
-10 -28 -10 -65z"/>
<path d="M57 313 c-11 -10 -8 -123 3 -123 6 0 10 9 10 20 0 17 7 20 40 20 33
0 40 -3 40 -20 0 -11 7 -20 15 -20 19 0 21 100 3 118 -13 13 -100 17 -111 5z
m93 -38 c0 -11 -11 -15 -40 -15 -29 0 -40 4 -40 15 0 11 11 15 40 15 29 0 40
-4 40 -15z"/>
<path d="M200 255 c0 -51 3 -65 15 -65 11 0 15 12 15 43 l1 42 37 -43 c52 -59
62 -56 62 23 0 51 -3 65 -15 65 -11 0 -15 -12 -15 -42 l-1 -43 -37 43 c-52 59
-62 56 -62 -23z"/>
<path d="M414 306 c-3 -7 -4 -35 -2 -62 l3 -49 48 -3 c55 -4 77 9 77 44 0 20
-5 24 -30 24 -16 0 -30 -4 -30 -10 0 -5 7 -10 15 -10 8 0 15 -4 15 -10 0 -5
-18 -10 -40 -10 -39 0 -40 1 -40 36 l0 37 55 -6 c55 -6 65 -1 43 21 -17 17
-107 16 -114 -2z"/>
<path d="M560 255 l0 -65 55 0 c42 0 55 3 55 15 0 11 -12 15 -45 15 -25 0 -45
5 -45 10 0 6 18 10 40 10 29 0 40 4 40 15 0 11 -11 15 -40 15 -22 0 -40 5 -40
10 0 6 20 10 45 10 33 0 45 4 45 15 0 12 -13 15 -55 15 l-55 0 0 -65z"/>
<path d="M700 255 c0 -37 4 -65 10 -65 6 0 10 19 10 43 l1 42 40 -42 c22 -24
44 -43 49 -43 6 0 10 29 10 65 0 37 -4 65 -10 65 -5 0 -10 -18 -10 -40 0 -22
-3 -40 -7 -40 -5 1 -21 19 -38 40 -44 57 -55 52 -55 -25z"/>
<path d="M840 305 c0 -9 9 -15 25 -15 23 0 25 -3 25 -50 0 -27 5 -50 10 -50 6
0 10 23 10 50 0 47 2 50 25 50 16 0 25 6 25 15 0 12 -13 15 -60 15 -47 0 -60
-3 -60 -15z"/>
<path d="M987 314 c-4 -4 -7 -34 -7 -66 0 -45 3 -58 15 -58 8 0 15 9 15 20 0
16 7 20 35 20 28 0 35 -4 35 -20 0 -11 7 -20 15 -20 13 0 15 11 13 63 l-3 62
-55 3 c-31 2 -59 0 -63 -4z m93 -39 c0 -10 -11 -15 -35 -15 -24 0 -35 5 -35
15 0 10 11 15 35 15 24 0 35 -5 35 -15z"/>
</g>
</svg>
